# xmcd
#
# Track frame offsets:
#	150
#	20076
#	39033
#	56542
#	73417
#	88665
#	97963
#	109668
#	126911
#	148771
#	164510
#	201725
#	219940
#	234339
#	250024
#	266454
#	283365
#	296027
#	313565
#	329743
#
# Disc length: 4776
#
# Revision: 1
# Processed by: cddbd v1.5.1PL0 Copyright (c) Steve Scherf et al.
# Submitted via: CDex 1.40Beta9
# Normalized: r0:TDELIM( - )
#
DISCID=3a12a614
DTITLE=Various Artist - East Coast Blues and Roots Festival (2002)
DYEAR=2002
DGENRE=Blues
TTITLE0=Eddy 'The Chief' Clearwater - I Wouldn't Lay My Guitar Down
TTITLE1=Chris Wilson - Go Go Gaugin
TTITLE2=Guy Davis - Waiting On The Cards To Fall
TTITLE3=Keb' Mo' - Big Yellow Taxi
TTITLE4=Kasey Chambers - Runaway Train
TTITLE5=Wayne Hancock - Miller, Jack And Mad Dog
TTITLE6=Bob Brozman - Devil's Slide
TTITLE7=Jeff Lang - Everything Is Still
TTITLE8=Bela Fleck And The Flecktones - Hoedown
TTITLE9=Patty Larkin - Burnin' Down
TTITLE10=John Butler Trio - Better Man
TTITLE11=Wild Magnolias - I Been Hoodood
TTITLE12=Marcia Ball - Scene Of The Crime
TTITLE13=The Proclaimers - How Many Times
TTITLE14=Luka Bloom - Monsoon
TTITLE15=Glenn Tilbrook - Parallel World
TTITLE16=Ross Wilson - It's Love Baby (24 Hours A Day)
TTITLE17=The Revelators - Ride On
TTITLE18=Big Jack Johnson And The Oilers - Big Foot Woman
TTITLE19=Buddy Guy - A Man And The Blues
EXTD=YEAR: 2002 ID3G: 0
EXTT0=
EXTT1=
EXTT2=
EXTT3=
EXTT4=
EXTT5=
EXTT6=
EXTT7=
EXTT8=
EXTT9=
EXTT10=
EXTT11=
EXTT12=
EXTT13=
EXTT14=
EXTT15=
EXTT16=
EXTT17=
EXTT18=
EXTT19=
PLAYORDER=
